<svg xmlns="http://www.w3.org/2000/svg" width="206" height="37" fill="none"><path fill="#fff" d="M22.723 0c1.078 0 2.111.43 2.874 1.197a4.101 4.101 0 0 1 1.19 2.892V20.75a4.101 4.101 0 0 1-1.19 2.89 4.051 4.051 0 0 1-2.874 1.198h-.27l2.205 5.715a4.303 4.303 0 0 1-.458 3.962 4.26 4.26 0 0 1-1.526 1.366 4.23 4.23 0 0 1-4.378-.25 4.268 4.268 0 0 1-1.562-1.97l-3.445-8.802H9.327v6.828a4.712 4.712 0 0 1-1.366 3.316 4.658 4.658 0 0 1-3.298 1.371 4.636 4.636 0 0 1-3.297-1.37A4.687 4.687 0 0 1 0 31.687V0h22.723ZM17.526 8.36a.585.585 0 0 0-.508-.541H9.327v9.71h7.717a.567.567 0 0 0 .508-.485l-.026-8.684ZM32.004 0h19.777a3.85 3.85 0 0 1 2.73 1.137 3.897 3.897 0 0 1 1.13 2.747v.051c0 1.03-.406 2.018-1.13 2.747a3.85 3.85 0 0 1-2.73 1.138H41.255v6.363H51.76a3.835 3.835 0 0 1 2.73 1.134 3.882 3.882 0 0 1 1.131 2.745c0 1.03-.407 2.018-1.13 2.747a3.85 3.85 0 0 1-2.73 1.138H41.254v6.578H51.76a3.85 3.85 0 0 1 2.73 1.137 3.897 3.897 0 0 1 1.131 2.747v.107a3.9 3.9 0 0 1-1.13 2.745 3.855 3.855 0 0 1-2.73 1.134H32.003V0ZM100.844 0H64.613a3.905 3.905 0 0 0-2.766 1.156 3.953 3.953 0 0 0 0 5.567 3.9 3.9 0 0 0 2.766 1.153h9.591L61.621 27.472a5.817 5.817 0 0 0 .765 7.229 5.733 5.733 0 0 0 4.066 1.694h36.21a3.898 3.898 0 0 0 2.766-1.152 3.946 3.946 0 0 0 1.146-2.783 3.946 3.946 0 0 0-1.146-2.783 3.898 3.898 0 0 0-2.766-1.152h-9.916l12.878-19.58a5.796 5.796 0 0 0-.728-7.257A5.705 5.705 0 0 0 100.844 0ZM86.432 25.555a3.069 3.069 0 0 1-4.257.869l-5.177 7.845a1.018 1.018 0 0 1-.848.46 1.011 1.011 0 0 1-.91-.538 1.028 1.028 0 0 1 .056-1.061l5.172-7.846a3.118 3.118 0 0 1-.864-4.278l2.825-4.293a1.02 1.02 0 0 1 .651-.444 1.011 1.011 0 0 1 .771.158 1.016 1.016 0 0 1 .438.653 1.028 1.028 0 0 1-.153.773l-2.261 3.43a.519.519 0 0 0 .142.715.51.51 0 0 0 .711-.143l2.261-3.456a1.019 1.019 0 0 1 1.053-.443c.132.028.258.08.37.157a1.02 1.02 0 0 1 .438 1.055 1.025 1.025 0 0 1-.154.371L84.436 23a.518.518 0 0 0 .141.716.51.51 0 0 0 .712-.143l2.26-3.435a1.02 1.02 0 0 1 .652-.443 1.011 1.011 0 0 1 .77.157 1.019 1.019 0 0 1 .44 1.055 1.025 1.025 0 0 1-.155.371l-2.824 4.278Zm3.891-17.602-3.398 5.151a3.058 3.058 0 0 1-1.947 1.326 3.03 3.03 0 0 1-2.305-.462l-3.399 5.152a1.02 1.02 0 0 1-1.049.441 1.013 1.013 0 0 1-.368-.155 1.022 1.022 0 0 1-.29-1.426L88.322 1.671l.853.567a4.14 4.14 0 0 1 1.743 2.62 4.16 4.16 0 0 1-.595 3.095ZM116.287 0c1.227.005 2.401.5 3.267 1.374a4.682 4.682 0 0 1 1.351 3.292v23.858h7.62c1.037 0 2.032.415 2.766 1.153a3.95 3.95 0 0 1 1.145 2.783 3.95 3.95 0 0 1-1.145 2.783 3.901 3.901 0 0 1-2.766 1.152h-16.871V4.666a4.69 4.69 0 0 1 1.355-3.3A4.634 4.634 0 0 1 116.287 0ZM142.164 36.395a4.632 4.632 0 0 1-3.279-1.363 4.658 4.658 0 0 1-1.359-3.298V4.646a4.68 4.68 0 0 1 1.366-3.287A4.623 4.623 0 0 1 142.164 0a4.61 4.61 0 0 1 3.288 1.362 4.67 4.67 0 0 1 1.36 3.305v27.089a4.676 4.676 0 0 1-1.369 3.288 4.62 4.62 0 0 1-3.279 1.352ZM151.826 32.46a3.95 3.95 0 0 1 1.146-2.783 3.901 3.901 0 0 1 2.766-1.152h9.652c.376 0 .589-.215.589-.512v-5.259c0-.266-.213-.511-.589-.511h-9.332a4.217 4.217 0 0 1-2.992-1.247 4.27 4.27 0 0 1-1.24-3.01V4.261a4.3 4.3 0 0 1 .321-1.63 4.254 4.254 0 0 1 2.291-2.308 4.204 4.204 0 0 1 1.62-.324h15.276a3.878 3.878 0 0 1 2.746 1.146 3.924 3.924 0 0 1 .002 5.528 3.876 3.876 0 0 1-2.748 1.146h-9.652a.51.51 0 0 0-.508.536v5.398a.506.506 0 0 0 .508.48h9.327a4.218 4.218 0 0 1 3.005 1.243 4.268 4.268 0 0 1 1.247 3.02v13.641a4.27 4.27 0 0 1-1.24 3.01 4.217 4.217 0 0 1-2.992 1.247h-15.291a3.901 3.901 0 0 1-2.766-1.152 3.95 3.95 0 0 1-1.146-2.783ZM206 3.935a3.951 3.951 0 0 1-1.146 2.785 3.903 3.903 0 0 1-2.766 1.156h-4.292v23.812a4.717 4.717 0 0 1-1.363 3.316 4.634 4.634 0 0 1-3.296 1.371 4.64 4.64 0 0 1-3.3-1.369 4.69 4.69 0 0 1-1.368-3.318V7.876h-4.288a3.891 3.891 0 0 1-2.768-1.155 3.936 3.936 0 0 1-1.143-2.786 3.95 3.95 0 0 1 1.145-2.783A3.901 3.901 0 0 1 184.181 0h17.902a3.897 3.897 0 0 1 2.769 1.15A3.937 3.937 0 0 1 206 3.936Z"/></svg>